<svg width="44" height="44" viewBox="0 0 44 44" fill="none" xmlns="http://www.w3.org/2000/svg">
<path d="M23.2718 36.4593C20.3605 35.8091 17.9759 34.3339 16.1182 32.0337C14.2604 29.7334 13.3321 27.0555 13.3333 24C13.3333 22.4465 13.6181 20.9536 14.1877 19.5212C14.756 18.0875 15.5394 16.773 16.538 15.5777C16.7091 15.3748 16.9102 15.2715 17.1412 15.2678C17.3722 15.2642 17.5922 15.3674 17.8012 15.5777C17.9723 15.7488 18.0597 15.9553 18.0633 16.1973C18.067 16.4393 17.9827 16.6685 17.8103 16.8848C16.9364 17.8553 16.2771 18.9528 15.8322 20.1775C15.3885 21.4034 15.1667 22.6775 15.1667 24C15.1667 26.5691 15.9629 28.8473 17.5555 30.8347C19.1481 32.822 21.1727 34.1084 23.6293 34.6938C23.8371 34.7452 24.0064 34.857 24.1372 35.0293C24.2679 35.2017 24.3333 35.3917 24.3333 35.5995C24.3333 35.905 24.2313 36.1452 24.0272 36.32C23.8231 36.4948 23.5713 36.5412 23.2718 36.4593ZM29.0615 36.529C28.7633 36.6121 28.5115 36.5644 28.3062 36.386C28.1008 36.2075 27.9988 35.9655 28 35.66C28 35.4571 28.0654 35.2701 28.1962 35.099C28.3269 34.9279 28.4968 34.8044 28.7058 34.7287C31.1381 34.0198 33.1559 32.6906 34.7595 30.7412C36.3631 28.7917 37.1654 26.5447 37.1667 24C37.1667 20.9444 36.0972 18.3472 33.9583 16.2083C31.8194 14.0694 29.2222 13 26.1667 13H25.0062L27.2905 15.2843C27.4861 15.4799 27.5838 15.6962 27.5838 15.9333C27.5838 16.1704 27.4861 16.3868 27.2905 16.5823C27.0949 16.7779 26.8792 16.8757 26.6433 16.8757C26.4062 16.8757 26.1899 16.7779 25.9943 16.5823L22.5312 13.1192C22.3723 12.9603 22.2604 12.7971 22.1957 12.6297C22.1309 12.4622 22.0979 12.2801 22.0967 12.0833C22.0954 11.8865 22.1278 11.7044 22.1938 11.537C22.2598 11.3695 22.3717 11.2058 22.5293 11.0457L25.9925 7.58432C26.1881 7.38876 26.4044 7.29099 26.6415 7.29099C26.8786 7.29099 27.0949 7.38876 27.2905 7.58432C27.4861 7.77987 27.5832 7.99621 27.582 8.23332C27.5808 8.47043 27.483 8.68676 27.2887 8.88232L25.008 11.1667H26.1667C29.7441 11.1667 32.7777 12.4109 35.2673 14.8993C37.757 17.3878 39.0012 20.4213 39 24C39 27.025 38.0656 29.6833 36.1968 31.975C34.3281 34.2667 31.9496 35.7834 29.0615 36.529Z" fill="white"/>
</svg>
